<?xml version="1.0" standalone="no"?>
<!DOCTYPE svg PUBLIC "-//W3C//DTD SVG 20010904//EN"
 "http://www.w3.org/TR/2001/REC-SVG-20010904/DTD/svg10.dtd">
<svg version="1.0" xmlns="http://www.w3.org/2000/svg"
 width="512.000000pt" height="512.000000pt" viewBox="0 0 512.000000 512.000000"
 preserveAspectRatio="xMidYMid meet">
<metadata>
Created by potrace 1.14, written by Peter Selinger 2001-2017
</metadata>
<g transform="translate(0.000000,512.000000) scale(0.100000,-0.100000)"
fill="#000000" stroke="none">
<path d="M3116 5101 c-16 -11 -34 -28 -40 -38 -6 -10 -12 -89 -13 -188 -1 -93
-2 -178 -2 -187 -1 -13 -9 -18 -29 -18 -91 0 -298 -79 -419 -159 l-75 -50
-126 125 c-69 69 -137 130 -151 136 -76 28 -156 -46 -143 -131 2 -15 55 -76
133 -156 l129 -132 -56 -83 c-31 -46 -63 -85 -72 -87 -10 -1 -41 -5 -69 -8
-141 -15 -385 -116 -508 -210 -162 -122 -302 -300 -371 -468 -16 -41 -24 -49
-59 -58 -22 -6 -74 -28 -116 -49 -293 -145 -483 -394 -543 -710 -18 -94 -18
-271 1 -359 8 -36 17 -76 19 -89 3 -13 22 -63 42 -111 91 -209 242 -375 442
-483 66 -36 188 -84 238 -93 15 -3 38 -8 52 -11 14 -3 111 -8 215 -10 105 -3
198 -6 207 -7 13 -2 -10 -49 -108 -221 -142 -249 -150 -274 -97 -328 38 -37
91 -46 132 -22 21 12 71 91 187 295 l159 279 687 0 687 0 -53 -92 c-29 -51
-85 -150 -125 -220 -40 -69 -75 -140 -77 -157 -15 -91 109 -157 178 -94 11 10
89 140 175 290 85 150 158 273 161 273 29 0 150 25 206 41 200 59 391 194 514
361 88 119 157 285 181 433 14 84 6 286 -14 370 -31 129 -102 280 -179 380
-46 59 -186 195 -202 195 -4 0 -57 36 -86 60 -4 3 1 35 12 70 11 36 22 83 25
105 11 78 -2 72 178 73 89 0 173 1 186 1 12 1 38 16 57 35 39 39 44 77 18 127
-24 47 -62 57 -209 57 -71 0 -151 1 -176 1 l-46 1 -6 48 c-18 138 -72 278
-158 404 -22 32 -39 62 -39 67 0 6 54 64 120 130 149 149 163 181 118 247 -21
30 -48 45 -88 48 -33 3 -79 -32 -193 -145 -71 -71 -124 -116 -130 -112 -7 4
-37 23 -67 44 -107 72 -225 120 -360 148 l-85 18 -1 164 c-1 90 -2 174 -3 186
-1 13 -14 37 -29 54 -36 40 -93 49 -136 20z m213 -655 c150 -34 317 -127 417
-233 186 -196 259 -492 187 -755 -14 -51 -18 -57 -37 -53 -129 32 -304 40
-431 21 l-50 -8 -23 54 c-64 155 -247 371 -397 469 -132 87 -302 158 -417 174
-27 4 -48 11 -48 16 0 19 137 152 200 194 81 54 201 103 295 121 66 13 248 13
304 0z m-824 -540 c11 -2 41 -9 67 -15 250 -57 482 -241 602 -476 20 -38 36
-73 36 -77 0 -3 -17 -17 -37 -29 -78 -47 -151 -109 -160 -136 -15 -43 -5 -85
28 -118 24 -24 37 -30 72 -29 34 1 56 11 117 55 142 102 256 138 423 134 56
-2 113 -6 126 -9 182 -42 329 -130 444 -265 59 -69 108 -161 142 -267 26 -77
30 -104 30 -204 0 -133 -4 -162 -35 -255 -54 -163 -164 -305 -310 -399 -61
-40 -176 -92 -224 -102 -11 -2 -32 -7 -46 -11 -14 -4 -538 -9 -1165 -10 -971
-2 -1150 0 -1208 12 -291 63 -511 268 -593 555 -22 79 -26 299 -5 370 81 282
279 489 533 556 75 21 123 53 133 91 3 15 22 61 41 103 157 339 486 544 859
534 60 -2 119 -5 130 -8z"/>
<path d="M4135 1173 c-11 -2 -30 -12 -42 -21 -19 -16 -374 -617 -393 -668 -12
-30 4 -85 32 -111 13 -12 39 -24 58 -28 70 -13 95 19 304 389 13 23 55 96 95
163 39 67 74 136 77 152 15 72 -56 138 -131 124z"/>
<path d="M902 1156 c-18 -10 -102 -125 -102 -140 0 -2 -61 -108 -137 -237 -75
-129 -142 -245 -150 -259 -29 -55 -5 -129 51 -152 38 -16 44 -16 77 -5 39 12
59 38 144 186 42 73 84 146 93 161 118 199 185 326 184 351 -2 83 -89 135
-160 95z"/>
<path d="M2475 1141 c-11 -5 -27 -17 -36 -27 -15 -16 -136 -222 -320 -544 -32
-54 -49 -96 -49 -117 0 -63 55 -114 114 -108 59 7 74 23 151 160 13 22 84 146
159 275 75 129 136 245 136 258 0 76 -84 132 -155 103z"/>
<path d="M1294 511 c-21 -13 -57 -67 -126 -187 -52 -93 -98 -177 -102 -188
-10 -29 12 -94 39 -112 13 -9 42 -18 63 -21 33 -4 44 -1 70 23 36 34 207 328
217 374 9 42 -10 85 -50 110 -40 25 -71 25 -111 1z"/>
<path d="M2910 503 c-28 -26 -181 -282 -209 -351 -18 -42 -7 -93 25 -123 34
-32 114 -34 143 -4 22 22 191 311 191 326 0 5 4 9 9 9 13 0 19 60 9 97 -19 71
-112 96 -168 46z"/>
</g>
</svg>
